<?xml version="1.0" encoding="UTF-8" standalone="no"?>
<!-- Created with Inkscape (http://www.inkscape.org/) -->

<svg
   xmlns:dc="http://purl.org/dc/elements/1.1/"
   xmlns:cc="http://creativecommons.org/ns#"
   xmlns:rdf="http://www.w3.org/1999/02/22-rdf-syntax-ns#"
   xmlns:svg="http://www.w3.org/2000/svg"
   xmlns="http://www.w3.org/2000/svg"
   xmlns:sodipodi="http://sodipodi.sourceforge.net/DTD/sodipodi-0.dtd"
   xmlns:inkscape="http://www.inkscape.org/namespaces/inkscape"
   width="900"
   height="150"
   viewBox="0 0 238.12499 39.687501"
   version="1.1"
   id="svg4615"
   inkscape:version="0.92.0 r15299"
   sodipodi:docname="logoCritpoVectorColor.svg">
  <defs
     id="defs4609" />
  <sodipodi:namedview
     id="base"
     pagecolor="#ffffff"
     bordercolor="#666666"
     borderopacity="1.0"
     inkscape:pageopacity="0.0"
     inkscape:pageshadow="2"
     inkscape:zoom="0.7"
     inkscape:cx="470.36869"
     inkscape:cy="-25.206659"
     inkscape:document-units="mm"
     inkscape:current-layer="layer1"
     showgrid="false"
     units="px"
     inkscape:window-width="1600"
     inkscape:window-height="837"
     inkscape:window-x="-8"
     inkscape:window-y="-8"
     inkscape:window-maximized="1" />
  <metadata
     id="metadata4612">
    <rdf:RDF>
      <cc:Work
         rdf:about="">
        <dc:format>image/svg+xml</dc:format>
        <dc:type
           rdf:resource="http://purl.org/dc/dcmitype/StillImage" />
        <dc:title></dc:title>
      </cc:Work>
    </rdf:RDF>
  </metadata>
  <g
     inkscape:label="Capa 1"
     inkscape:groupmode="layer"
     id="layer1"
     transform="translate(0,-257.31248)">
    <g
       id="g4540"
       transform="translate(0.39483216,-0.81809333)">
      <g
         id="text4534"
         style="font-style:normal;font-variant:normal;font-weight:normal;font-stretch:normal;font-size:39.40179825px;line-height:221.63508606px;font-family:'Tw Cen MT';-inkscape-font-specification:'Tw Cen MT';letter-spacing:0px;word-spacing:0px;fill:#4d4d4d;fill-opacity:0.94117647;stroke:none;stroke-width:3.69391847"
         aria-label="CRIPT     CASH">
        <path
           id="path4507"
           style="font-style:normal;font-variant:normal;font-weight:bold;font-stretch:normal;font-family:'Tw Cen MT';-inkscape-font-specification:'Tw Cen MT Bold';fill:#4d4d4d;fill-opacity:0.94117647;stroke-width:3.69391847"
           d="m 19.403228,273.30515 v 6.17577 q -4.097941,-2.48186 -7.176206,-2.48186 -3.0782658,0 -4.925225,2.11631 -1.8469593,2.11631 -1.8469593,5.69479 0,3.3861 1.943155,5.42545 1.9431551,2.02011 5.1945733,2.02011 2.847395,0 6.810662,-2.28946 v 6.11805 q -4.444246,1.48142 -7.407076,1.48142 -5.0983774,0 -8.6576219,-3.7324 -3.55924443,-3.75164 -3.55924443,-9.1386 0,-5.48316 3.61696193,-9.27328 3.6362011,-3.80935 8.8307744,-3.80935 3.347613,0 7.176206,1.69305 z"
           inkscape:connector-curvature="0" />
        <path
           id="path4509"
           style="font-style:normal;font-variant:normal;font-weight:bold;font-stretch:normal;font-family:'Tw Cen MT';-inkscape-font-specification:'Tw Cen MT Bold';fill:#4d4d4d;fill-opacity:0.94117647;stroke-width:3.69391847"
           d="m 23.501169,271.95841 h 8.311317 q 3.790114,0 5.983378,2.00087 2.212504,2.00087 2.212504,5.4062 0,1.94316 -1.019676,4.04023 -1.000436,2.09706 -3.713157,3.28989 l 7.060771,10.52382 h -6.233488 l -6.541314,-9.77349 h -0.615653 v 9.77349 h -5.444682 z m 5.483161,4.50196 v 6.57979 h 1.173588 q 4.251854,0 4.251854,-3.48229 0,-1.42369 -1.115871,-2.25098 -1.096632,-0.84652 -3.059026,-0.84652 z"
           inkscape:connector-curvature="0" />
        <path
           id="path4511"
           style="font-style:normal;font-variant:normal;font-weight:bold;font-stretch:normal;font-family:'Tw Cen MT';-inkscape-font-specification:'Tw Cen MT Bold';fill:#4d4d4d;fill-opacity:0.94117647;stroke-width:3.69391847"
           d="m 46.280334,271.95841 h 5.425443 v 25.26101 h -5.425443 z"
           inkscape:connector-curvature="0" />
        <path
           id="path4513"
           style="font-style:normal;font-variant:normal;font-weight:bold;font-stretch:normal;font-family:'Tw Cen MT';-inkscape-font-specification:'Tw Cen MT Bold';fill:#4d4d4d;fill-opacity:0.94117647;stroke-width:3.69391847"
           d="m 56.90035,271.95841 h 8.638383 q 3.482288,0 5.617834,2.03935 2.135547,2.02011 2.135547,5.32924 0,2.17403 -1.058154,4.13642 -1.038914,1.94316 -3.155222,2.90512 -2.116307,0.96195 -3.616962,1.00043 l -3.155222,0.077 v 9.77349 H 56.90035 Z m 5.329247,4.54044 v 6.46435 h 2.116308 q 1.36598,0 2.327938,-0.98119 0.981197,-0.9812 0.981197,-2.32794 0,-1.53913 -1.096632,-2.38566 -1.096632,-0.84652 -3.116744,-0.84652 z"
           inkscape:connector-curvature="0" />
        <path
           id="path4515"
           style="font-style:normal;font-variant:normal;font-weight:bold;font-stretch:normal;font-family:'Tw Cen MT';-inkscape-font-specification:'Tw Cen MT Bold';fill:#4d4d4d;fill-opacity:0.94117647;stroke-width:3.69391847"
           d="m 75.985596,271.95841 h 16.988178 v 5.36772 h -5.790987 v 19.89329 h -5.444682 v -19.89329 h -5.752509 z"
           inkscape:connector-curvature="0" />
        <path
           id="path4517"
           style="font-style:normal;font-variant:normal;font-weight:bold;font-stretch:normal;font-family:'Tw Cen MT';-inkscape-font-specification:'Tw Cen MT Bold';fill:#4d4d4d;fill-opacity:0.94117647;stroke-width:3.69391847"
           d="m 167.77562,273.30515 v 6.17577 q -4.09794,-2.48186 -7.17621,-2.48186 -3.07826,0 -4.92522,2.11631 -1.84696,2.11631 -1.84696,5.69479 0,3.3861 1.94315,5.42545 1.94316,2.02011 5.19458,2.02011 2.84739,0 6.81066,-2.28946 v 6.11805 q -4.44425,1.48142 -7.40708,1.48142 -5.09837,0 -8.65762,-3.7324 -3.55924,-3.75164 -3.55924,-9.1386 0,-5.48316 3.61696,-9.27328 3.6362,-3.80935 8.83077,-3.80935 3.34762,0 7.17621,1.69305 z"
           inkscape:connector-curvature="0" />
        <path
           id="path4519"
           style="font-style:normal;font-variant:normal;font-weight:bold;font-stretch:normal;font-family:'Tw Cen MT';-inkscape-font-specification:'Tw Cen MT Bold';fill:#4d4d4d;fill-opacity:0.94117647;stroke-width:3.69391847"
           d="m 180.66586,271.95841 h 4.21338 l 10.31219,25.26101 h -5.46392 l -2.05859,-4.9637 h -9.6773 l -1.98164,4.9637 h -5.44468 z m 2.11631,8.27283 -2.94359,7.44556 h 5.98338 z"
           inkscape:connector-curvature="0" />
        <path
           id="path4521"
           style="font-style:normal;font-variant:normal;font-weight:bold;font-stretch:normal;font-family:'Tw Cen MT';-inkscape-font-specification:'Tw Cen MT Bold';fill:#4d4d4d;fill-opacity:0.94117647;stroke-width:3.69391847"
           d="m 213.18003,274.24787 -3.38609,3.71315 q -2.67424,-1.57761 -3.84783,-1.57761 -0.90424,0 -1.55837,0.69261 -0.65413,0.67337 -0.65413,1.61609 0,1.8662 3.38609,3.23218 2.48185,1.05815 3.75164,1.92392 1.26978,0.84652 2.1163,2.36641 0.86576,1.5199 0.86576,3.2899 0,3.25142 -2.63576,5.65631 -2.61653,2.4049 -6.19501,2.4049 -3.92479,0 -7.75338,-3.69392 l 3.57848,-4.1749 q 2.4049,2.48185 4.50197,2.48185 0.98119,0 1.88543,-0.86576 0.90424,-0.885 0.90424,-1.84696 0,-1.98163 -4.17489,-3.48229 -2.38566,-0.86576 -3.3861,-1.61609 -1.00043,-0.76956 -1.69304,-2.2125 -0.67337,-1.46218 -0.67337,-2.98207 0,-3.36685 2.19326,-5.46392 2.19327,-2.09707 5.73327,-2.09707 4.19414,0 7.04153,2.63577 z"
           inkscape:connector-curvature="0" />
        <path
           id="path4523"
           style="font-style:normal;font-variant:normal;font-weight:bold;font-stretch:normal;font-family:'Tw Cen MT';-inkscape-font-specification:'Tw Cen MT Bold';fill:#4d4d4d;fill-opacity:0.94117647;stroke-width:3.69391847"
           d="m 217.73972,271.95841 h 5.44468 v 9.73501 h 8.94621 v -9.73501 h 5.42544 v 25.26101 h -5.42544 v -10.04284 h -8.94621 v 10.04284 h -5.44468 z"
           inkscape:connector-curvature="0" />
      </g>
      <path
         id="rect4536"
         d="m 112.18038,271.61209 h 18.1851 c 7.18915,0 12.97681,5.78766 12.97681,12.97681 0,7.18915 -5.78766,12.97681 -12.97681,12.97681 h -18.1851 c -7.18916,0 -12.976812,-5.78766 -12.976812,-12.97681 0,-7.18915 5.787652,-12.97681 12.976812,-12.97681 z"
         style="opacity:1;fill:#246ed1;fill-opacity:1;stroke:none;stroke-width:0.52445072;stroke-linecap:round;stroke-linejoin:miter;stroke-miterlimit:4;stroke-dasharray:none;stroke-dashoffset:0;stroke-opacity:1"
         inkscape:connector-curvature="0" />
      <path
         id="circle4538"
         d="m 123.69729,284.5889 a 10.277998,10.277998 0 0 1 -10.278,10.278 10.277998,10.277998 0 0 1 -10.278,-10.278 10.277998,10.277998 0 0 1 10.278,-10.278 10.277998,10.277998 0 0 1 10.278,10.278 z"
         style="opacity:1;fill:#f9f9f9;fill-opacity:1;stroke:none;stroke-width:1.78863037;stroke-linecap:round;stroke-linejoin:miter;stroke-miterlimit:4;stroke-dasharray:none;stroke-dashoffset:0;stroke-opacity:1"
         inkscape:connector-curvature="0" />
    </g>
  </g>
</svg>
