<?xml version="1.0" encoding="UTF-8" standalone="no"?>
<!-- Created with Inkscape (http://www.inkscape.org/) -->

<svg
   xmlns:dc="http://purl.org/dc/elements/1.1/"
   xmlns:cc="http://creativecommons.org/ns#"
   xmlns:rdf="http://www.w3.org/1999/02/22-rdf-syntax-ns#"
   xmlns:svg="http://www.w3.org/2000/svg"
   xmlns="http://www.w3.org/2000/svg"
   xmlns:sodipodi="http://sodipodi.sourceforge.net/DTD/sodipodi-0.dtd"
   xmlns:inkscape="http://www.inkscape.org/namespaces/inkscape"
   width="900"
   height="100"
   viewBox="0 0 238.12499 26.458334"
   version="1.1"
   id="svg4615"
   inkscape:version="0.92.0 r15299"
   sodipodi:docname="logoCritpoVector.svg">
  <defs
     id="defs4609" />
  <sodipodi:namedview
     id="base"
     pagecolor="#ffffff"
     bordercolor="#666666"
     borderopacity="1.0"
     inkscape:pageopacity="0.0"
     inkscape:pageshadow="2"
     inkscape:zoom="0.98994949"
     inkscape:cx="457.07996"
     inkscape:cy="-44.654865"
     inkscape:document-units="mm"
     inkscape:current-layer="layer1"
     showgrid="false"
     units="px"
     inkscape:window-width="1600"
     inkscape:window-height="837"
     inkscape:window-x="-8"
     inkscape:window-y="-8"
     inkscape:window-maximized="1" />
  <metadata
     id="metadata4612">
    <rdf:RDF>
      <cc:Work
         rdf:about="">
        <dc:format>image/svg+xml</dc:format>
        <dc:type
           rdf:resource="http://purl.org/dc/dcmitype/StillImage" />
        <dc:title></dc:title>
      </cc:Work>
    </rdf:RDF>
  </metadata>
  <g
     inkscape:label="Capa 1"
     inkscape:groupmode="layer"
     id="layer1"
     transform="translate(0,-270.54165)">
    <g
       transform="matrix(0.98979381,0,0,0.98979381,-696.13707,-103.91529)"
       id="g4587">
      <path
         id="path4543"
         style="font-style:normal;font-variant:normal;font-weight:bold;font-stretch:normal;font-size:medium;line-height:223.62809753px;font-family:'Tw Cen MT';-inkscape-font-specification:'Tw Cen MT Bold';letter-spacing:0px;word-spacing:0px;fill:#ffffff;fill-opacity:0.94117647;stroke:none;stroke-width:3.72713518"
         d="m 723.44839,380.29847 v 6.2313 q -4.1348,-2.50417 -7.24074,-2.50417 -3.10595,0 -4.96952,2.13534 -1.86356,2.13534 -1.86356,5.746 0,3.41654 1.96063,5.47423 1.96062,2.03828 5.24128,2.03828 2.873,0 6.87191,-2.31005 v 6.17307 q -4.48421,1.49474 -7.47369,1.49474 -5.14422,0 -8.73547,-3.76596 -3.59125,-3.78538 -3.59125,-9.22078 0,-5.53247 3.64949,-9.35666 3.66889,-3.84361 8.91018,-3.84361 3.37771,0 7.24074,1.70827 z"
         inkscape:connector-curvature="0" />
      <path
         id="path4545"
         style="font-style:normal;font-variant:normal;font-weight:bold;font-stretch:normal;font-size:medium;line-height:223.62809753px;font-family:'Tw Cen MT';-inkscape-font-specification:'Tw Cen MT Bold';letter-spacing:0px;word-spacing:0px;fill:#ffffff;fill-opacity:0.94117647;stroke:none;stroke-width:3.72713518"
         d="m 727.58318,378.93962 h 8.38605 q 3.8242,0 6.03718,2.01886 2.2324,2.01887 2.2324,5.45482 0,1.96063 -1.02884,4.07655 -1.00943,2.11593 -3.74655,3.31948 l 7.12426,10.61846 h -6.28954 l -6.60013,-9.86138 h -0.62119 v 9.86138 h -5.49364 z m 5.53246,4.54244 v 6.63896 h 1.18414 q 4.29009,0 4.29009,-3.5136 0,-1.4365 -1.1259,-2.27122 -1.1065,-0.85414 -3.08654,-0.85414 z"
         inkscape:connector-curvature="0" />
      <path
         id="path4547"
         style="font-style:normal;font-variant:normal;font-weight:bold;font-stretch:normal;font-size:medium;line-height:223.62809753px;font-family:'Tw Cen MT';-inkscape-font-specification:'Tw Cen MT Bold';letter-spacing:0px;word-spacing:0px;fill:#ffffff;fill-opacity:0.94117647;stroke:none;stroke-width:3.72713518"
         d="m 750.56718,378.93962 h 5.47423 v 25.48817 h -5.47423 z"
         inkscape:connector-curvature="0" />
      <path
         id="path4549"
         style="font-style:normal;font-variant:normal;font-weight:bold;font-stretch:normal;font-size:medium;line-height:223.62809753px;font-family:'Tw Cen MT';-inkscape-font-specification:'Tw Cen MT Bold';letter-spacing:0px;word-spacing:0px;fill:#ffffff;fill-opacity:0.94117647;stroke:none;stroke-width:3.72713518"
         d="m 761.28269,378.93962 h 8.71606 q 3.5136,0 5.66835,2.05769 2.15475,2.03827 2.15475,5.37716 0,2.19358 -1.06766,4.17362 -1.04826,1.96063 -3.1836,2.93124 -2.13534,0.97061 -3.64949,1.00943 l -3.18359,0.0777 v 9.86138 h -5.45482 z m 5.37717,4.58127 v 6.52248 h 2.13534 q 1.37826,0 2.34887,-0.99002 0.99002,-0.99002 0.99002,-2.34887 0,-1.55297 -1.10649,-2.40711 -1.1065,-0.85413 -3.14477,-0.85413 z"
         inkscape:connector-curvature="0" />
      <path
         id="path4551"
         style="font-style:normal;font-variant:normal;font-weight:bold;font-stretch:normal;font-size:medium;line-height:223.62809753px;font-family:'Tw Cen MT';-inkscape-font-specification:'Tw Cen MT Bold';letter-spacing:0px;word-spacing:0px;fill:#ffffff;fill-opacity:0.94117647;stroke:none;stroke-width:3.72713518"
         d="m 780.53956,378.93962 h 17.14094 v 5.41599 h -5.84306 v 20.07218 h -5.49365 v -20.07218 h -5.80423 z"
         inkscape:connector-curvature="0" />
      <path
         id="path4553"
         style="font-style:normal;font-variant:normal;font-weight:bold;font-stretch:normal;font-size:medium;line-height:223.62809753px;font-family:'Tw Cen MT';-inkscape-font-specification:'Tw Cen MT Bold';letter-spacing:0px;word-spacing:0px;fill:#ffffff;fill-opacity:0.94117647;stroke:none;stroke-width:3.72713518"
         d="m 873.15499,380.29847 v 6.2313 q -4.13479,-2.50417 -7.24074,-2.50417 -3.10594,0 -4.96951,2.13534 -1.86357,2.13534 -1.86357,5.746 0,3.41654 1.96063,5.47423 1.96063,2.03828 5.24128,2.03828 2.873,0 6.87191,-2.31005 v 6.17307 q -4.48421,1.49474 -7.47368,1.49474 -5.14423,0 -8.73548,-3.76596 -3.59125,-3.78538 -3.59125,-9.22078 0,-5.53247 3.64949,-9.35666 3.6689,-3.84361 8.91018,-3.84361 3.37772,0 7.24074,1.70827 z"
         inkscape:connector-curvature="0" />
      <path
         id="path4555"
         style="font-style:normal;font-variant:normal;font-weight:bold;font-stretch:normal;font-size:medium;line-height:223.62809753px;font-family:'Tw Cen MT';-inkscape-font-specification:'Tw Cen MT Bold';letter-spacing:0px;word-spacing:0px;fill:#ffffff;fill-opacity:0.94117647;stroke:none;stroke-width:3.72713518"
         d="m 886.16114,378.93962 h 4.25126 l 10.40492,25.48817 h -5.51305 l -2.0771,-5.00834 h -9.76432 l -1.99945,5.00834 h -5.49365 z m 2.13534,8.34723 -2.97006,7.5125 h 6.03718 z"
         inkscape:connector-curvature="0" />
      <path
         id="path4557"
         style="font-style:normal;font-variant:normal;font-weight:bold;font-stretch:normal;font-size:medium;line-height:223.62809753px;font-family:'Tw Cen MT';-inkscape-font-specification:'Tw Cen MT Bold';letter-spacing:0px;word-spacing:0px;fill:#ffffff;fill-opacity:0.94117647;stroke:none;stroke-width:3.72713518"
         d="m 918.96769,381.24966 -3.41654,3.74655 q -2.69829,-1.5918 -3.88243,-1.5918 -0.91237,0 -1.57239,0.69884 -0.66001,0.67943 -0.66001,1.63062 0,1.88298 3.41654,3.26125 2.50417,1.06767 3.78537,1.94121 1.28121,0.85414 2.13534,2.3877 0.87355,1.53356 0.87355,3.31948 0,3.28066 -2.65947,5.70718 -2.64005,2.42652 -6.25072,2.42652 -3.96008,0 -7.8231,-3.72714 l 3.61067,-4.21244 q 2.42652,2.50417 4.54244,2.50417 0.99002,0 1.90239,-0.87355 0.91238,-0.89296 0.91238,-1.86356 0,-1.99946 -4.21244,-3.51361 -2.40711,-0.87354 -3.41655,-1.63062 -1.00943,-0.77648 -1.70827,-2.2324 -0.67942,-1.47532 -0.67942,-3.00888 0,-3.39713 2.21299,-5.51306 2.21298,-2.11592 5.78482,-2.11592 4.23185,0 7.10485,2.65946 z"
         inkscape:connector-curvature="0" />
      <path
         id="path4559"
         style="font-style:normal;font-variant:normal;font-weight:bold;font-stretch:normal;font-size:medium;line-height:223.62809753px;font-family:'Tw Cen MT';-inkscape-font-specification:'Tw Cen MT Bold';letter-spacing:0px;word-spacing:0px;fill:#ffffff;fill-opacity:0.94117647;stroke:none;stroke-width:3.72713518"
         d="m 923.56838,378.93962 h 5.49364 v 9.82255 h 9.02666 v -9.82255 h 5.47423 v 25.48817 h -5.47423 v -10.13315 h -9.02666 v 10.13315 h -5.49364 z"
         inkscape:connector-curvature="0" />
      <path
         inkscape:connector-curvature="0"
         style="opacity:1;fill:#ffffff;fill-opacity:1;stroke:none;stroke-width:0.52916676;stroke-linecap:round;stroke-linejoin:miter;stroke-miterlimit:4;stroke-dasharray:none;stroke-dashoffset:0;stroke-opacity:1"
         d="m 817.05983,378.5902 h 18.34863 c 7.2538,0 13.0935,5.8397 13.0935,13.0935 0,7.2538 -5.8397,13.0935 -13.0935,13.0935 h -18.34863 c -7.2538,0 -13.0935,-5.8397 -13.0935,-13.0935 0,-7.2538 5.8397,-13.0935 13.0935,-13.0935 z"
         id="path4563" />
      <path
         inkscape:connector-curvature="0"
         style="opacity:1;fill:#246ed1;fill-opacity:1;stroke:none;stroke-width:1.8047142;stroke-linecap:round;stroke-linejoin:miter;stroke-miterlimit:4;stroke-dasharray:none;stroke-dashoffset:0;stroke-opacity:1"
         d="m 828.68032,391.68371 a 10.37042,10.37042 0 0 1 -10.37042,10.37042 10.37042,10.37042 0 0 1 -10.37042,-10.37042 10.37042,10.37042 0 0 1 10.37042,-10.37042 10.37042,10.37042 0 0 1 10.37042,10.37042 z"
         id="path4565" />
    </g>
  </g>
</svg>
